<?xml version="1.0" encoding="UTF-8"?>
<svg width="45px" height="58px" viewBox="0 0 45 58" version="1.1" xmlns="http://www.w3.org/2000/svg" xmlns:xlink="http://www.w3.org/1999/xlink">
    <!-- Generator: Sketch 53.2 (72643) - https://sketchapp.com -->
    <title>user</title>
    <desc>Created with Sketch.</desc>
    <g id="Welcome" stroke="none" stroke-width="1" fill="none" fill-rule="evenodd">
        <g id="Desktop-HD" transform="translate(-211.000000, -2088.000000)" fill="#F3F3F6" fill-rule="nonzero">
            <g id="Testimonials" transform="translate(200.000000, 1600.000000)">
                <g id="Left" transform="translate(0.000000, 212.000000)">
                    <path d="M33.0552457,304.365811 C26.6063086,304.365811 21.3781886,298.015971 21.3781886,290.182989 C21.3781886,282.34984 23.0949886,276 33.0552457,276 C43.0155029,276 44.7319714,282.34984 44.7319714,290.182989 C44.7319714,298.015971 39.5038514,304.365811 33.0552457,304.365811 Z M55.0844743,325.448646 C55.0982286,326.321463 55.10552,326.472429 55.1091657,326.394543 C55.1086686,326.62588 55.1083371,326.965926 55.1083371,327.454949 C55.1083371,327.454949 51.8613314,334 33.05508,334 C14.2484971,334 11.0018229,327.454949 11.0018229,327.454949 C11.0018229,326.693823 11.0008286,326.257331 11,326.021354 C11.0036457,326.147297 11.0130914,326.090291 11.0334743,325.00536 C11.2820457,311.718886 13.1725143,307.8884 26.6608286,305.454057 C26.6608286,305.454057 28.5807943,307.900166 33.05508,307.900166 C37.5293657,307.900166 39.449,305.454057 39.449,305.454057 C53.0861257,307.915246 54.8682171,311.8034 55.0844743,325.448646 Z" id="user"></path>
                </g>
            </g>
        </g>
    </g>
</svg>