<?xml version="1.0" encoding="UTF-8"?>
<svg width="67px" height="58px" viewBox="0 0 67 58" version="1.1" xmlns="http://www.w3.org/2000/svg" xmlns:xlink="http://www.w3.org/1999/xlink">
    <!-- Generator: Sketch 53.2 (72643) - https://sketchapp.com -->
    <title>quote</title>
    <desc>Created with Sketch.</desc>
    <g id="Welcome" stroke="none" stroke-width="1" fill="none" fill-rule="evenodd" opacity="0.1">
        <g id="Desktop-HD" transform="translate(-200.000000, -1824.000000)" fill="#8D88A5">
            <g id="Testimonials" transform="translate(200.000000, 1600.000000)">
                <g id="Left" transform="translate(0.000000, 212.000000)">
                    <g id="Testimonial">
                        <path d="M0,12 L30.9394904,12 L30.9394904,35.8112745 C30.9394904,44.5776582 29.1139602,51.507736 25.462845,56.6017157 C21.8117298,61.6956954 15.5764772,66.1617455 6.75690021,70 L0,57.3480392 C5.50038136,54.7892029 9.28183682,52.2422512 11.3444798,49.7071078 C13.4071228,47.1719644 14.5569698,44.1748539 14.7940552,40.7156863 L0,40.7156863 L0,12 Z M36.0605096,12 L67,12 L67,35.8112745 C67,44.5776582 65.1744698,51.507736 61.5233546,56.6017157 C57.8722394,61.6956954 51.6369868,66.1617455 42.8174098,70 L36.0605096,57.3480392 C41.5608909,54.7892029 45.3423464,52.2422512 47.4049894,49.7071078 C49.4676324,47.1719644 50.6174794,44.1748539 50.8545648,40.7156863 L36.0605096,40.7156863 L36.0605096,12 Z" id="quote"></path>
                    </g>
                </g>
            </g>
        </g>
    </g>
</svg>