<svg id="Layer_1" data-name="Layer 1" xmlns="http://www.w3.org/2000/svg" viewBox="0 0 437.42 110.29"><defs><style>.cls-1{fill:#fff;}</style></defs><title>logo-color-white</title><path class="cls-1" d="M135.5,424.25c-7.34,0-13.1,2.9-17.15,8.64a16.15,16.15,0,0,0-14.52-8.64,18.67,18.67,0,0,0-15,6.75v-1a5.4,5.4,0,0,0-5.32-5.32A5.28,5.28,0,0,0,78.29,430v40.32a5.28,5.28,0,0,0,10.55,0V442.45c2.39-3.92,6-8.3,12.54-8.3,6.18,0,8.59,3,8.59,10.84v25.38a5.28,5.28,0,0,0,10.55,0V442.45c2.39-3.92,6-8.3,12.54-8.3,6.18,0,8.59,3,8.59,10.84v25.38a5.28,5.28,0,0,0,10.55,0V443.3C152.19,434.12,147,424.25,135.5,424.25Z" transform="translate(-78.29 -365.78)"/><path class="cls-1" d="M185.88,424.25a41.2,41.2,0,0,0-16.64,3.46,4.7,4.7,0,0,0-3.06,4.5,4.48,4.48,0,0,0,4.48,4.57,6.32,6.32,0,0,0,1.53-.24,36.41,36.41,0,0,1,12.19-2.21c8.15,0,11.52,3,11.59,10.41H185.6c-14.16,0-22.62,6.07-22.62,16.23,0,9.91,8.21,15.1,16.32,15.1A24.86,24.86,0,0,0,196,470.23v0.14a5.28,5.28,0,0,0,10.55,0v-26.6C206.53,434.05,200.14,424.25,185.88,424.25Zm-3.38,42.3c-5.95,0-9-2.19-9-6.52,0-1.59,0-6.43,13.19-6.43H196v6.51C193.21,463.15,188.14,466.55,182.5,466.55Z" transform="translate(-78.29 -365.78)"/><rect class="cls-1" x="142.5" y="39.67" width="12.15" height="11.96" rx="5.79" ry="5.79"/><path class="cls-1" d="M226.77,424.72a5.22,5.22,0,0,0-5.23,5.32v40.32a5.28,5.28,0,0,0,10.55,0V430A5.27,5.27,0,0,0,226.77,424.72Z" transform="translate(-78.29 -365.78)"/><path class="cls-1" d="M253.47,404a5.22,5.22,0,0,0-5.23,5.32v61a5.28,5.28,0,0,0,10.55,0v-61A5.27,5.27,0,0,0,253.47,404Z" transform="translate(-78.29 -365.78)"/><path class="cls-1" d="M295.2,424.25c-7.52,0-13.69,2.79-17.87,8.08-3.61,4.57-5.6,10.9-5.6,17.83,0,16.22,9.47,25.91,25.34,25.91,8.71,0,13-2,16.95-4.27a5.17,5.17,0,0,0,2.95-4.35,4.66,4.66,0,0,0-4.76-4.67,4.44,4.44,0,0,0-2.15.49,24.58,24.58,0,0,1-12.23,2.8c-8.76,0-14-4.11-15.3-11.91h30.72a5.1,5.1,0,0,0,5.32-5.23C318.57,432,306.46,424.25,295.2,424.25Zm0,9.24c4.36,0,11.77,2.5,12.82,11.72H282.47C283.41,437.12,289.43,433.49,295.2,433.49Z" transform="translate(-78.29 -365.78)"/><path class="cls-1" d="M355.08,424.25h-0.47c-5,0-9.61,2.36-13.76,7V430a5.4,5.4,0,0,0-5.32-5.32A5.28,5.28,0,0,0,330.3,430v40.32a5.28,5.28,0,0,0,10.55,0V442.1c3.39-4.89,8.2-7.58,13.57-7.58h0.47a5,5,0,0,0,5.32-5A5.13,5.13,0,0,0,355.08,424.25Z" transform="translate(-78.29 -365.78)"/><path class="cls-1" d="M500.71,365.78H394.28a15,15,0,0,0-15,15v95.29l20.66-20.46H500.71a15,15,0,0,0,15-15V380.78A15,15,0,0,0,500.71,365.78ZM411.15,433a4,4,0,0,1-8,0v-42.5a4,4,0,1,1,8,0V433Zm18.6,0a4,4,0,0,1-8,0v-28.1a4,4,0,1,1,8,0V433Zm0.59-40.93a4.34,4.34,0,0,1-4.34,4.34h-0.39a4.34,4.34,0,0,1-4.34-4.34v-0.26a4.34,4.34,0,0,1,4.34-4.34H426a4.34,4.34,0,0,1,4.34,4.34v0.26ZM458.47,436a13.8,13.8,0,0,1-5.88,1.28c-6.91,0-10.56-3.33-10.56-9.64v-19.3h-3.65a2.2,2.2,0,0,1-2.25-2.24,2.45,2.45,0,0,1,.95-1.88l8.85-8.66a2.62,2.62,0,0,1,1.81-.87A2.25,2.25,0,0,1,450,397v4.24h6.4a3.55,3.55,0,0,1,0,7.11H450v18.78c0,2.72,1.35,2.93,3.26,2.93a8.18,8.18,0,0,0,2.34-.33,6,6,0,0,1,1.59-.26,3.41,3.41,0,0,1,3.36,3.36A3.46,3.46,0,0,1,458.47,436ZM483,429.75a16.84,16.84,0,0,0,8.38-1.92,3.42,3.42,0,0,1,1.64-.37,3.55,3.55,0,0,1,3.62,3.55,3.9,3.9,0,0,1-2.21,3.29c-2.79,1.59-5.81,3-12,3-11.25,0-18-6.86-18-18.35,0-13.55,9-18.36,16.65-18.36,11.4,0,16.59,9.07,16.59,17.5a3.85,3.85,0,0,1-4,3.95h-21C473.71,427.1,477.26,429.75,483,429.75Z" transform="translate(-78.29 -365.78)"/><path class="cls-1" d="M481.21,407.65a8.41,8.41,0,0,0-8.52,7.56h17.11A8.46,8.46,0,0,0,481.21,407.65Z" transform="translate(-78.29 -365.78)"/></svg>